<svg width="169" height="26" viewBox="0 0 169 26" fill="none" xmlns="http://www.w3.org/2000/svg">
<path d="M11.06 25.36C8.708 25.36 6.764 25.048 5.228 24.424C3.692 23.8 2.552 22.876 1.808 21.652C1.064 20.428 0.692 18.928 0.692 17.152V16.684H5.984V17.044C5.984 17.932 6.128 18.628 6.416 19.132C6.704 19.612 7.22 19.96 7.964 20.176C8.732 20.368 9.848 20.464 11.312 20.464C12.848 20.464 13.868 20.296 14.372 19.96C14.876 19.624 15.128 19.048 15.128 18.232C15.128 17.68 15.044 17.236 14.876 16.9C14.732 16.564 14.396 16.288 13.868 16.072C13.34 15.832 12.512 15.628 11.384 15.46L7.136 14.704C5.6 14.44 4.34 14.008 3.356 13.408C2.396 12.784 1.688 12.016 1.232 11.104C0.8 10.168 0.584 9.076 0.584 7.828C0.584 6.58 0.896 5.404 1.52 4.3C2.168 3.196 3.2 2.296 4.616 1.6C6.056 0.879999 7.916 0.52 10.196 0.52C12.5 0.52 14.36 0.879999 15.776 1.6C17.216 2.32 18.272 3.316 18.944 4.588C19.616 5.836 19.952 7.264 19.952 8.872V9.16H14.624V8.764C14.624 7.924 14.492 7.264 14.228 6.784C13.964 6.304 13.496 5.956 12.824 5.74C12.152 5.524 11.216 5.416 10.016 5.416C8.48 5.416 7.412 5.596 6.812 5.956C6.236 6.292 5.948 6.844 5.948 7.612C5.948 8.116 6.044 8.524 6.236 8.836C6.428 9.124 6.764 9.352 7.244 9.52C7.748 9.688 8.468 9.868 9.404 10.06L13.688 10.888C15.368 11.2 16.7 11.704 17.684 12.4C18.692 13.072 19.412 13.888 19.844 14.848C20.276 15.808 20.492 16.876 20.492 18.052C20.492 19.324 20.18 20.524 19.556 21.652C18.932 22.756 17.936 23.656 16.568 24.352C15.2 25.024 13.364 25.36 11.06 25.36ZM31.1933 25.36C29.1293 25.36 27.4253 24.976 26.0813 24.208C24.7373 23.44 23.7413 22.36 23.0933 20.968C22.4453 19.552 22.1213 17.896 22.1213 16C22.1213 14.056 22.4813 12.376 23.2013 10.96C23.9453 9.544 25.0013 8.452 26.3693 7.684C27.7373 6.916 29.3573 6.532 31.2293 6.532C33.0533 6.532 34.6013 6.868 35.8733 7.54C37.1693 8.212 38.1533 9.148 38.8253 10.348C39.5213 11.524 39.8693 12.904 39.8693 14.488C39.8693 14.992 39.8333 15.484 39.7613 15.964C39.7133 16.444 39.6653 16.84 39.6173 17.152H24.4973V13.876H35.0093L34.6493 14.164C34.7453 13.468 34.6613 12.892 34.3973 12.436C34.1573 11.956 33.7493 11.596 33.1733 11.356C32.6213 11.092 31.9133 10.96 31.0493 10.96C29.5613 10.96 28.5413 11.296 27.9893 11.968C27.4373 12.64 27.1613 13.6 27.1613 14.848V16.432C27.1613 17.44 27.2693 18.256 27.4853 18.88C27.7253 19.504 28.1453 19.96 28.7453 20.248C29.3453 20.536 30.1853 20.68 31.2653 20.68C32.3453 20.68 33.1253 20.56 33.6053 20.32C34.1093 20.056 34.3613 19.648 34.3613 19.096V18.88H39.6893V19.24C39.6893 20.536 39.3413 21.64 38.6453 22.552C37.9493 23.464 36.9653 24.16 35.6933 24.64C34.4213 25.12 32.9213 25.36 31.1933 25.36ZM51.1997 25.36C49.2077 25.36 47.5277 24.976 46.1597 24.208C44.7917 23.44 43.7597 22.36 43.0637 20.968C42.3677 19.552 42.0197 17.896 42.0197 16C42.0197 14.056 42.3797 12.376 43.0997 10.96C43.8437 9.544 44.9237 8.452 46.3397 7.684C47.7557 6.916 49.4717 6.532 51.4877 6.532C53.0957 6.532 54.5237 6.844 55.7717 7.468C57.0437 8.068 58.0397 8.92 58.7597 10.024C59.4797 11.128 59.8397 12.436 59.8397 13.948V14.38H54.4397V14.092C54.4397 13.06 54.1517 12.352 53.5757 11.968C53.0237 11.56 52.1837 11.356 51.0557 11.356C49.7597 11.356 48.8117 11.704 48.2117 12.4C47.6357 13.096 47.3477 14.284 47.3477 15.964C47.3477 17.644 47.6357 18.832 48.2117 19.528C48.8117 20.2 49.7597 20.536 51.0557 20.536C52.1837 20.536 53.0237 20.344 53.5757 19.96C54.1517 19.552 54.4397 18.832 54.4397 17.8V17.512H59.8397V17.944C59.8397 19.432 59.4677 20.74 58.7237 21.868C57.9797 22.972 56.9597 23.836 55.6637 24.46C54.3677 25.06 52.8797 25.36 51.1997 25.36ZM68.9089 25.36C67.3489 25.36 66.0649 25.048 65.0569 24.424C64.0489 23.8 63.3169 22.96 62.8609 21.904C62.4049 20.848 62.1769 19.672 62.1769 18.376V6.892H67.5409V17.296C67.5409 18.568 67.7929 19.456 68.2969 19.96C68.8249 20.464 69.7609 20.716 71.1049 20.716C71.9689 20.716 72.6769 20.608 73.2289 20.392C73.7809 20.176 74.1769 19.816 74.4169 19.312C74.6809 18.784 74.8129 18.064 74.8129 17.152H76.0009V21.832H74.9929C74.6569 22.528 74.2129 23.14 73.6609 23.668C73.1089 24.196 72.4369 24.616 71.6449 24.928C70.8769 25.216 69.9649 25.36 68.9089 25.36ZM80.1769 25H75.1729V19.888L74.8129 19.708V6.892H80.1769V25ZM88.8481 25H83.4841V6.892H88.4881V12.04L88.8481 12.22V25ZM88.8481 13.66H87.8401V9.808H88.7041C89.1601 8.896 89.7961 8.128 90.6121 7.504C91.4521 6.856 92.5081 6.532 93.7801 6.532C95.0521 6.532 96.0601 6.82 96.8041 7.396C97.5721 7.948 98.1241 8.716 98.4601 9.7C98.7961 10.66 98.9641 11.752 98.9641 12.976V14.632H93.6001V13.66C93.6001 12.676 93.4321 12.004 93.0961 11.644C92.7601 11.284 92.1601 11.104 91.2961 11.104C90.4801 11.104 89.8681 11.284 89.4601 11.644C89.0521 12.004 88.8481 12.676 88.8481 13.66ZM109.521 25.36C107.457 25.36 105.753 24.976 104.409 24.208C103.065 23.44 102.069 22.36 101.421 20.968C100.773 19.552 100.449 17.896 100.449 16C100.449 14.056 100.809 12.376 101.529 10.96C102.273 9.544 103.329 8.452 104.697 7.684C106.065 6.916 107.685 6.532 109.557 6.532C111.381 6.532 112.929 6.868 114.201 7.54C115.497 8.212 116.481 9.148 117.153 10.348C117.849 11.524 118.197 12.904 118.197 14.488C118.197 14.992 118.161 15.484 118.089 15.964C118.041 16.444 117.993 16.84 117.945 17.152H102.825V13.876H113.337L112.977 14.164C113.073 13.468 112.989 12.892 112.725 12.436C112.485 11.956 112.077 11.596 111.501 11.356C110.949 11.092 110.241 10.96 109.377 10.96C107.889 10.96 106.869 11.296 106.317 11.968C105.765 12.64 105.489 13.6 105.489 14.848V16.432C105.489 17.44 105.597 18.256 105.813 18.88C106.053 19.504 106.473 19.96 107.073 20.248C107.673 20.536 108.513 20.68 109.593 20.68C110.673 20.68 111.453 20.56 111.933 20.32C112.437 20.056 112.689 19.648 112.689 19.096V18.88H118.017V19.24C118.017 20.536 117.669 21.64 116.973 22.552C116.277 23.464 115.293 24.16 114.021 24.64C112.749 25.12 111.249 25.36 109.521 25.36ZM126.432 25H121.032V0.879999H128.628L132.84 12.148L134.784 18.34H135.144L137.052 12.148L141.084 0.879999H148.68V25H143.28V13.588L143.568 8.944H143.172L141.768 13.66L138.132 23.344H131.58L127.944 13.66L126.504 8.944H126.144L126.432 13.588V25ZM160.146 25.36C158.082 25.36 156.378 24.976 155.034 24.208C153.69 23.44 152.694 22.36 152.046 20.968C151.398 19.552 151.074 17.896 151.074 16C151.074 14.056 151.434 12.376 152.154 10.96C152.898 9.544 153.954 8.452 155.322 7.684C156.69 6.916 158.31 6.532 160.182 6.532C162.006 6.532 163.554 6.868 164.826 7.54C166.122 8.212 167.106 9.148 167.778 10.348C168.474 11.524 168.822 12.904 168.822 14.488C168.822 14.992 168.786 15.484 168.714 15.964C168.666 16.444 168.618 16.84 168.57 17.152H153.45V13.876H163.962L163.602 14.164C163.698 13.468 163.614 12.892 163.35 12.436C163.11 11.956 162.702 11.596 162.126 11.356C161.574 11.092 160.866 10.96 160.002 10.96C158.514 10.96 157.494 11.296 156.942 11.968C156.39 12.64 156.114 13.6 156.114 14.848V16.432C156.114 17.44 156.222 18.256 156.438 18.88C156.678 19.504 157.098 19.96 157.698 20.248C158.298 20.536 159.138 20.68 160.218 20.68C161.298 20.68 162.078 20.56 162.558 20.32C163.062 20.056 163.314 19.648 163.314 19.096V18.88H168.642V19.24C168.642 20.536 168.294 21.64 167.598 22.552C166.902 23.464 165.918 24.16 164.646 24.64C163.374 25.12 161.874 25.36 160.146 25.36Z" fill="black"/>
</svg>
